HIERARCHY
ROOT hip
{
  OFFSET 0 0 0
  CHANNELS 6 Xposition Yposition Zposition Zrotation Yrotation Xrotation
  JOINT abdomen
  {
    OFFSET 0 20.6881 -0.73152
    CHANNELS 3 Zrotation Xrotation Yrotation
    JOINT chest
    {
      OFFSET 0 11.7043 -0.48768
      CHANNELS 3 Zrotation Xrotation Yrotation
      JOINT neck
      {
        OFFSET 0 22.1894 -2.19456
        CHANNELS 3 Zrotation Xrotation Yrotation
        JOINT head
        {
          OFFSET -0.24384 7.07133 1.2192
          CHANNELS 3 Zrotation Xrotation Yrotation
          JOINT leftEye
          {
            OFFSET 4.14528 8.04674 8.04672
            CHANNELS 3 Zrotation Xrotation Yrotation
            End Site
            {
              OFFSET 1 0 0
            }
          }
          JOINT rightEye
          {
            OFFSET -3.6576 8.04674 8.04672
            CHANNELS 3 Zrotation Xrotation Yrotation
            End Site
            {
              OFFSET 1 0 0
            }
          }
        }
      }
      JOINT rCollar
      {
        OFFSET -2.68224 19.2634 -4.8768
        CHANNELS 3 Zrotation Xrotation Yrotation
        JOINT rShldr
        {
          OFFSET -8.77824 -1.95073 1.46304
          CHANNELS 3 Zrotation Xrotation Yrotation
          JOINT rForeArm
          {
            OFFSET -28.1742 -1.7115 0.48768
            CHANNELS 3 Zrotation Xrotation Yrotation
            JOINT rHand
            {
              OFFSET -22.5879 0.773209 7.07136
              CHANNELS 3 Zrotation Xrotation Yrotation
              JOINT rThumb1
              {
                OFFSET -1.2192 -0.487915 3.41376
                CHANNELS 3 Zrotation Xrotation Yrotation
                JOINT rThumb2
                {
                  OFFSET -3.37035 -0.52449 3.41376
                  CHANNELS 3 Zrotation Xrotation Yrotation
                  End Site
                  {
                    OFFSET -1.78271 -1.18214 1.43049
                  }
                }
              }
              JOINT rIndex1
              {
                OFFSET -7.75947 0.938293 5.60832
                CHANNELS 3 Zrotation Xrotation Yrotation
                JOINT rIndex2
                {
                  OFFSET -2.54057 -0.884171 1.56538
                  CHANNELS 3 Zrotation Xrotation Yrotation
                  End Site
                  {
                    OFFSET -1.62519 -0.234802 1.16502
                  }
                }
              }
              JOINT rMid1
              {
                OFFSET -8.24714 1.18213 3.41376
                CHANNELS 3 Zrotation Xrotation Yrotation
                JOINT rMid2
                {
                  OFFSET -3.10165 -0.590103 1.0647
                  CHANNELS 3 Zrotation Xrotation Yrotation
                  End Site
                  {
                    OFFSET -2.48547 -0.328903 0.83742
                  }
                }
              }
              JOINT rRing1
              {
                OFFSET -8.82822 0.546677 1.51678
                CHANNELS 3 Zrotation Xrotation Yrotation
                JOINT rRing2
                {
                  OFFSET -2.60934 -0.819778 -0.0198488
                  CHANNELS 3 Zrotation Xrotation Yrotation
                  End Site
                  {
                    OFFSET -2.33842 -0.294052 0.168128
                  }
                }
              }
              JOINT rPinky1
              {
                OFFSET -8.27202 -0.0477905 -0.4584
                CHANNELS 3 Zrotation Xrotation Yrotation
                JOINT rPinky2
                {
                  OFFSET -1.82734 -0.647385 -0.700984
                  CHANNELS 3 Zrotation Xrotation Yrotation
                  End Site
                  {
                    OFFSET -1.69225 -0.51767 -0.607171
                  }
                }
              }
            }
          }
        }
      }
      JOINT lCollar
      {
        OFFSET 2.68224 19.2634 -4.8768
        CHANNELS 3 Zrotation Xrotation Yrotation
        JOINT lShldr
        {
          OFFSET 8.77824 -1.95073 1.46304
          CHANNELS 3 Zrotation Xrotation Yrotation
          JOINT lForeArm
          {
            OFFSET 28.1742 -1.7115 0.48768
            CHANNELS 3 Zrotation Xrotation Yrotation
            JOINT lHand
            {
              OFFSET 22.5879 0.773209 7.07136
              CHANNELS 3 Zrotation Xrotation Yrotation
              JOINT lThumb1
              {
                OFFSET 1.2192 -0.487915 3.41376
                CHANNELS 3 Zrotation Xrotation Yrotation
                JOINT lThumb2
                {
                  OFFSET 3.37035 -0.52449 3.41376
                  CHANNELS 3 Zrotation Xrotation Yrotation
                  End Site
                  {
                    OFFSET 1.78271 -1.18214 1.43049
                  }
                }
              }
              JOINT lIndex1
              {
                OFFSET 7.75947 0.938293 5.60832
                CHANNELS 3 Zrotation Xrotation Yrotation
                JOINT lIndex2
                {
                  OFFSET 2.54057 -0.884171 1.56538
                  CHANNELS 3 Zrotation Xrotation Yrotation
                  End Site
                  {
                    OFFSET 1.62519 -0.234802 1.16502
                  }
                }
              }
              JOINT lMid1
              {
                OFFSET 8.24714 1.18213 3.41376
                CHANNELS 3 Zrotation Xrotation Yrotation
                JOINT lMid2
                {
                  OFFSET 3.10165 -0.590103 1.0647
                  CHANNELS 3 Zrotation Xrotation Yrotation
                  End Site
                  {
                    OFFSET 2.48547 -0.328903 0.83742
                  }
                }
              }
              JOINT lRing1
              {
                OFFSET 8.82822 0.546677 1.51678
                CHANNELS 3 Zrotation Xrotation Yrotation
                JOINT lRing2
                {
                  OFFSET 2.60934 -0.819778 -0.0198488
                  CHANNELS 3 Zrotation Xrotation Yrotation
                  End Site
                  {
                    OFFSET 2.33842 -0.294052 0.168128
                  }
                }
              }
              JOINT lPinky1
              {
                OFFSET 8.27202 -0.0477905 -0.4584
                CHANNELS 3 Zrotation Xrotation Yrotation
                JOINT lPinky2
                {
                  OFFSET 1.82734 -0.647385 -0.700984
                  CHANNELS 3 Zrotation Xrotation Yrotation
                  End Site
                  {
                    OFFSET 1.69225 -0.51767 -0.607171
                  }
                }
              }
            }
          }
        }
      }
    }
  }
  JOINT rButtock
  {
    OFFSET -8.77824 4.35084 1.2192
    CHANNELS 3 Zrotation Xrotation Yrotation
    JOINT rThigh
    {
      OFFSET 0 -1.70687 -2.19456
      CHANNELS 3 Zrotation Xrotation Yrotation
      JOINT rShin
      {
        OFFSET 0 -36.8199 0.73152
        CHANNELS 3 Zrotation Xrotation Yrotation
        JOINT rFoot
        {
          OFFSET 0.73152 -45.1104 -5.12064
          CHANNELS 3 Zrotation Xrotation Yrotation
          End Site
          {
            OFFSET -1.1221 -3.69964 12.103
          }
        }
      }
    }
  }
  JOINT lButtock
  {
    OFFSET 8.77824 4.35084 1.2192
    CHANNELS 3 Zrotation Xrotation Yrotation
    JOINT lThigh
    {
      OFFSET 0 -1.70687 -2.19456
      CHANNELS 3 Zrotation Xrotation Yrotation
      JOINT lShin
      {
        OFFSET 0 -36.8199 0.73152
        CHANNELS 3 Zrotation Xrotation Yrotation
        JOINT lFoot
        {
          OFFSET -0.73152 -45.1104 -5.12064
          CHANNELS 3 Zrotation Xrotation Yrotation
          End Site
          {
            OFFSET 1.1221 -3.69964 12.103
          }
        }
      }
    }
  }
}
MOTION
Frames:	4
Frame Time:	0.00833333
29.3525 81.3938 7.51738 -178.361 -27.7723 172.746 -5.144 25.0402 5.92631 -3.6746 2.73226 0.534104 4.99425 27.7444 6.07241 -2.3126 -33.3068 11.7215 -0.0 0.0 0.0 -0.0 0.0 0.0 4.60256e-13 -2.33845e-13 -8.52182e-13 52.7164 -18.8003 18.5857 -27.6885 -41.8123 87.2387 -0.0524161 -6.5202 -0.920369 2.34373e-09 1.39924e-08 9.89743e-09 3.9946e-09 2.41167e-08 1.71241e-08 2.34373e-09 1.39924e-08 9.89742e-09 7.73091 5.47488 0.417314 2.34372e-09 1.39924e-08 9.89743e-09 2.90554 0.965183 0.102902 2.34373e-09 1.39924e-08 9.89743e-09 10.2786 0.731801 0.0259123 2.34373e-09 1.39924e-08 9.89743e-09 2.22167 -0.733487 -0.20892 4.60287e-13 -2.33869e-13 -8.52393e-13 -33.0227 -25.8784 -8.36261 26.6745 -44.8377 -93.1245 0.0418009 5.63373 -0.794774 -2.73587e-10 -5.44016e-09 1.01518e-08 -4.38587e-10 -9.37596e-09 1.75515e-08 -2.73595e-10 -5.44016e-09 1.01518e-08 -7.73091 5.47488 -0.417314 -2.73588e-10 -5.44016e-09 1.01518e-08 -2.90554 0.965183 -0.102902 -2.73597e-10 -5.44015e-09 1.01518e-08 -10.2786 0.731801 -0.0259123 -2.73588e-10 -5.44016e-09 1.01518e-08 -2.22167 -0.733487 0.20892 -2.03217e-16 0.0 -3.88251e-19 2.51429 -15.5952 0.369783 -0.255318 38.9365 0.952358 -10.1824 -17.2139 -25.1932 2.03217e-16 0.0 3.88251e-19 5.39634 -12.9424 -2.92137 0.250392 36.2441 -0.739215 5.48865 -14.9946 14.8992
29.3611 81.3928 7.48092 -178.275 -27.8197 172.707 -5.25598 24.8884 5.90661 -3.57164 2.72514 0.530628 5.15683 27.6814 5.99515 -2.06107 -32.9242 11.6403 -0.0 0.0 0.0 -0.0 0.0 0.0 4.67277e-13 -3.1834e-13 -8.47941e-13 53.3203 -18.1764 18.6388 -27.7257 -41.6662 86.9646 -0.0481859 -6.25166 -0.882152 2.05678e-09 1.32442e-08 9.2549e-09 3.50178e-09 2.2826e-08 1.60133e-08 2.05679e-09 1.32442e-08 9.2549e-09 7.73091 5.47488 0.417314 2.05678e-09 1.32442e-08 9.2549e-09 2.90554 0.965183 0.102902 2.05679e-09 1.32442e-08 9.25491e-09 10.2786 0.731801 0.0259123 2.05678e-09 1.32442e-08 9.25491e-09 2.22167 -0.733487 -0.20892 4.67328e-13 -3.18366e-13 -8.48171e-13 -33.1391 -25.1979 -8.19446 26.7679 -44.614 -92.6688 0.0503939 6.31503 -0.891399 -3.50714e-10 -5.00943e-09 9.67158e-09 -5.67673e-10 -8.62632e-09 1.67195e-08 -3.50729e-10 -5.00942e-09 9.6716e-09 -7.73091 5.47488 -0.417314 -3.50713e-10 -5.00942e-09 9.67158e-09 -2.90554 0.965183 -0.102902 -3.50722e-10 -5.00942e-09 9.67158e-09 -10.2786 0.731801 -0.0259123 -3.50715e-10 -5.00942e-09 9.67158e-09 -2.22167 -0.733487 0.20892 -2.03217e-16 0.0 -3.88251e-19 2.58894 -15.5263 0.427766 -0.254167 38.9031 0.954133 -10.2519 -17.3816 -25.1961 2.03217e-16 0.0 3.88251e-19 5.36045 -12.9329 -3.11474 0.250564 36.2707 -0.741998 5.54624 -15.1011 14.9861
29.3773 81.3966 7.44683 -178.111 -27.9187 172.663 -5.32134 24.7184 5.87188 -3.46467 2.71027 0.528489 5.3177 27.6139 5.90539 -1.82978 -32.6325 11.5347 -0.0 0.0 0.0 -0.0 0.0 0.0 4.41801e-13 -3.79629e-13 -7.77504e-13 53.8433 -17.5469 18.7165 -27.7557 -41.547 86.7406 -0.0440057 -5.97461 -0.842765 1.61779e-09 1.14481e-08 7.8249e-09 2.75082e-09 1.97295e-08 1.35398e-08 1.6178e-09 1.14481e-08 7.82489e-09 7.73091 5.47488 0.417314 1.61778e-09 1.14481e-08 7.82489e-09 2.90554 0.965183 0.102902 1.61779e-09 1.14481e-08 7.8249e-09 10.2786 0.731801 0.0259123 1.61778e-09 1.14481e-08 7.82491e-09 2.22167 -0.733487 -0.20892 4.41867e-13 -3.79653e-13 -7.7775e-13 -33.2419 -24.4975 -8.19989 26.8591 -44.3853 -92.2101 0.0645075 7.2382 -1.02277 -4.26063e-10 -4.21423e-09 8.40825e-09 -6.97653e-10 -7.25039e-09 1.45342e-08 -4.26084e-10 -4.21424e-09 8.40828e-09 -7.73091 5.47488 -0.417314 -4.26061e-10 -4.21423e-09 8.40826e-09 -2.90554 0.965183 -0.102902 -4.26069e-10 -4.21423e-09 8.40826e-09 -10.2786 0.731801 -0.0259123 -4.26064e-10 -4.21423e-09 8.40825e-09 -2.22167 -0.733487 0.20892 -2.03217e-16 0.0 -3.88251e-19 2.69362 -15.4317 0.501022 -0.251783 38.8084 0.95446 -10.3307 -17.5356 -25.2363 2.03217e-16 0.0 3.88251e-19 5.33821 -12.9257 -3.3382 0.250266 36.263 -0.743643 5.5969 -15.1951 15.0615
29.3734 81.4126 7.41052 -178.073 -28.0206 172.657 -5.34864 24.5736 5.82686 -3.37362 2.68058 0.525206 5.43334 27.5416 5.83361 -1.64483 -32.4396 11.4522 -0.0 0.0 0.0 -0.0 0.0 0.0 3.81595e-13 -3.60983e-13 -6.61456e-13 54.211 -16.9309 18.7507 -27.7769 -41.4579 86.5762 -0.0398414 -5.68772 -0.802019 1.22798e-09 9.2292e-09 6.14916e-09 2.08645e-09 1.59051e-08 1.06406e-08 1.22799e-09 9.22921e-09 6.14915e-09 7.73091 5.47488 0.417314 1.22798e-09 9.2292e-09 6.14916e-09 2.90554 0.965183 0.102902 1.22799e-09 9.2292e-09 6.14916e-09 10.2786 0.731801 0.0259123 1.22798e-09 9.22921e-09 6.14917e-09 2.22167 -0.733487 -0.20892 3.81664e-13 -3.61001e-13 -6.61704e-13 -33.3219 -23.9014 -8.28987 26.942 -44.1692 -91.781 0.0777777 7.93125 -1.12191 -4.67999e-10 -3.35937e-09 6.82401e-09 -7.74124e-10 -5.77589e-09 1.17953e-08 -4.68024e-10 -3.35937e-09 6.82404e-09 -7.73091 5.47488 -0.417314 -4.67998e-10 -3.35937e-09 6.82401e-09 -2.90554 0.965183 -0.102902 -4.68005e-10 -3.35937e-09 6.82401e-09 -10.2786 0.731801 -0.0259123 -4.68001e-10 -3.35936e-09 6.82401e-09 -2.22167 -0.733487 0.20892 -2.03217e-16 0.0 -3.88251e-19 2.80745 -15.3307 0.568736 -0.248946 38.6825 0.953134 -10.3943 -17.6164 -25.3125 2.03217e-16 0.0 3.88251e-19 5.35047 -12.9086 -3.50845 0.249598 36.224 -0.74371 5.62623 -15.2435 15.1085
